{"title":"Attack on Titan (EngDub) Complete 720p HEVC Download","magnet":"magnet:?xt=urn:btih:0fd7599cfd306b5f6e540aca78441de30f39c53b&dn=Attack+on+Titan+%28EngDub%29+Complete+720p+HEVC+Download&tr=udp%3A%2F%2Ftracker.leechers-paradise.org%3A6969&tr=udp%3A%2F%2Fzer0day.ch%3A1337&tr=udp%3A%2F%2Fopen.demonii.com%3A1337&tr=udp%3A%2F%2Ftracker.coppersurfer.tk%3A6969&tr=udp%3A%2F%2Fexodus.desync.com%3A6969","uploader":"Browse digimaza","categoryP":"video","categoryS":"other","size":"5186445111","seeders":"8","leechers":"12","description":"Attack on Titan (EngDub) Complete 720p HEVC Download <a href=\"\nhttps://s27.postimg.org/5vwtve8eb/Attack_On_Titan_Poster.jpg\" rel=\"nofollow\" target=\"_NEW\">\nhttps://s27.postimg.org/5vwtve8eb/Attack_On_Titan_Poster.jpg</a>\r\n\r\nSeveral hundred years ago, humans were nearly exterminated by Titans. Titans are typically several stories tall, seem to have no intelligence, devour human beings and, worst of all, seem to do it for the pleasure rather than as a food source.\r\n\r\n..::File Specs::.. \r\n\r\nGeneral \r\n\r\nFormat : Matroska \r\nFormat version : Version 4 / Version 2 \r\nFile size : 191 MiB \r\nDuration : 24 min 11 s \r\nOverall bit rate : 1 103 kb/s \r\n\r\nVideo \r\nID : 1 \r\nFormat : HEVC \r\nFormat/Info : High Efficiency Video Coding \r\nFormat profile : <a class=\"__cf_email__\" href=\"/cdn-cgi/l/email-protection\" data-cfemail=\"e1ac80888fa1add2cfd0\">[email&#xA0;protected]</a><script data-cfhash=\"f9e31\" type=\"text/javascript\">/* <![CDATA[ */!function(t,e,r,n,c,a,p){try{t=document.currentScript||function(){for(t=document.getElementsByTagName('script'),e=t.length;e--;)if(t[e].getAttribute('data-cfhash'))return t[e]}();if(t&&(c=t.previousSibling)){p=t.parentNode;if(a=c.getAttribute('data-cfemail')){for(e='',r='0x'+a.substr(0,2)|0,n=2;a.length-n;n+=2)e+='%'+('0'+('0x'+a.substr(n,2)^r).toString(16)).slice(-2);p.replaceChild(document.createTextNode(decodeURIComponent(e)),c)}p.removeChild(t)}}catch(u){}}()/* ]]> */</script>@Main \r\nCodec ID : V_MPEGH/ISO/HEVC \r\nDuration : 24 min 10 s \r\nBit rate : 909 kb/s \r\nWidth : 1 280 pixels \r\nHeight : 720 pixels \r\nDisplay aspect ratio : 16:9 \r\nFrame rate mode : Constant \r\nFrame rate : 23.976 (24000/1001) FPS \r\nColor space : YUV \r\nChroma subsampling : 4:2:0 \r\nBit depth : 8 bits \r\nBits/(Pixel*Frame) : 0.041 \r\nStream size : 157 MiB (82%) \r\n\r\nAudio \r\nID : 2 \r\nFormat : AC-3 \r\nFormat/Info : Audio Coding 3 \r\nMode extension : CM (complete main) \r\nFormat settings, Endianness : Big \r\nCodec ID : A_AC3 \r\nDuration : 24 min 11 s \r\nBit rate mode : Constant \r\nBit rate : 192 kb/s \r\nChannel(s) : 2 channels \r\nChannel positions : Front: L R \r\nSampling rate : 48.0 kHz \r\nFrame rate : 31.250 FPS (1536 spf) \r\nBit depth : 16 bits \r\nCompression mode : Lossy \r\nStream size : 33.2 MiB (17%) \r\nLanguage : English \r\n\r\nText #1 \r\nID : 3 \r\nFormat : ASS \r\nCodec ID : S_TEXT/ASS \r\nCodec ID/Info : Advanced Sub Station Alpha \r\nDuration : 23 min 16 s \r\nBit rate : 13 b/s \r\nCount of elements : 26 \r\nCompression mode : Lossless \r\nStream size : 2.27 KiB (0%) \r\nTitle : English Signs/Songs \r\nLanguage : English \r\n\r\nText #2 \r\nID : 4 \r\nFormat : ASS \r\nCodec ID : S_TEXT/ASS \r\nCodec ID/Info : Advanced Sub Station Alpha \r\nDuration : 24 min 9 s \r\nBit rate : 113 b/s \r\nCount of elements : 342 \r\nCompression mode : Lossless \r\nStream size : 20.1 KiB (0%) \r\nTitle : English Subtitles \r\nLanguage : English \r\n\r\n..::ScreenShots::..  <a href=\"\nhttps://s27.postimg.org/anvkru4tv/vlcsnap-2017-04-23-01h50m35s337.png\" rel=\"nofollow\" target=\"_NEW\">\nhttps://s27.postimg.org/anvkru4tv/vlcsnap-2017-04-23-01h50m35s337.png</a>  <a href=\"\nhttps://s27.postimg.org/qne8be0vn/vlcsnap-2017-04-23-01h51m56s753.png\" rel=\"nofollow\" target=\"_NEW\">\nhttps://s27.postimg.org/qne8be0vn/vlcsnap-2017-04-23-01h51m56s753.png</a>  <a href=\"\nhttps://s27.postimg.org/6haqci583/vlcsnap-2017-04-23-01h53m05s299.png\" rel=\"nofollow\" target=\"_NEW\">\nhttps://s27.postimg.org/6haqci583/vlcsnap-2017-04-23-01h53m05s299.png</a> \r\n\r\n================================================================ \r\nSeed Seed Seed Seed Seed Seed Seed Seed Seed Seed Seed Seed Seed \r\nIf You Like Our Work For You, Consider a BTC Donation. \r\n1QDS1uDYov85ZdJeWyxYH4ttXoYvPEyaxe \r\n================================================================","last_updated":"2017-04-25T12:48:32.753Z","parsed":{"xt":"urn:btih:0fd7599cfd306b5f6e540aca78441de30f39c53b","dn":"Attack on Titan (EngDub) Complete 720p HEVC Download","tr":["udp://exodus.desync.com:6969","udp://open.demonii.com:1337","udp://tracker.coppersurfer.tk:6969","udp://tracker.leechers-paradise.org:6969","udp://zer0day.ch:1337"],"infoHash":"0fd7599cfd306b5f6e540aca78441de30f39c53b","infoHashBuffer":{"type":"Buffer","data":[15,215,89,156,253,48,107,95,110,84,10,202,120,68,29,227,15,57,197,59]},"name":"Attack on Titan (EngDub) Complete 720p HEVC Download","announce":["udp://exodus.desync.com:6969","udp://open.demonii.com:1337","udp://tracker.coppersurfer.tk:6969","udp://tracker.leechers-paradise.org:6969","udp://zer0day.ch:1337"],"urlList":[]}}